<svg version = "1.1" xmlns = "http://www.w3.org/2000/svg">
<line x1="10" y1="10" x2="100" y2="10" stroke-width="1" stroke="blue"/> 
<line x1="100" y1="10" x2="100" y2="100" stroke-width="1" stroke="blue"/> 
<line x1="100" y1="100" x2="10" y2="100" stroke-width="1" stroke="blue"/> 
<line x1="10" y1="100" x2="10" y2="10" stroke-width="1" stroke="blue"/> 
<line x1="20" y1="20" x2="90" y2="20" stroke-width="1" stroke="green"/> 
<line x1="90" y1="20" x2="90" y2="90" stroke-width="1" stroke="green"/> 
<line x1="90" y1="90" x2="20" y2="90" stroke-width="1" stroke="green"/> 
<line x1="20" y1="90" x2="20" y2="20" stroke-width="1" stroke="green"/> 
<line x1="30" y1="30" x2="80" y2="30" stroke-width="1" stroke="yellow"/> 
<line x1="80" y1="30" x2="80" y2="80" stroke-width="1" stroke="yellow"/> 
<line x1="80" y1="80" x2="30" y2="80" stroke-width="1" stroke="yellow"/> 
<line x1="30" y1="80" x2="30" y2="30" stroke-width="1" stroke="yellow"/> 
<line x1="110" y1="10" x2="300" y2="10" stroke-width="1" stroke="blue"/> 
<line x1="300" y1="10" x2="300" y2="100" stroke-width="1" stroke="blue"/> 
<line x1="300" y1="100" x2="110" y2="100" stroke-width="1" stroke="blue"/> 
<line x1="110" y1="100" x2="110" y2="10" stroke-width="1" stroke="blue"/> 
<ellipse cx="205" cy="55" rx="85" ry="35" fill="none" stroke-width="1" stroke="green"/>
<ellipse cx="205" cy="55" rx="65" ry="25" fill="none" stroke-width="1" stroke="yellow"/>
<line x1="10" y1="110" x2="100" y2="110" stroke-width="1" stroke="pink"/> 
<line x1="100" y1="110" x2="55" y2="160" stroke-width="1" stroke="pink"/> 
<line x1="55" y1="160" x2="10" y2="110" stroke-width="1" stroke="pink"/> 
<line x1="490" y1="300" x2="453.713" y2="411.679" stroke-width="1" stroke="red"/> 
<line x1="453.713" y1="411.679" x2="358.713" y2="480.701" stroke-width="1" stroke="red"/> 
<line x1="358.713" y1="480.701" x2="241.287" y2="480.701" stroke-width="1" stroke="red"/> 
<line x1="241.287" y1="480.701" x2="146.287" y2="411.679" stroke-width="1" stroke="red"/> 
<line x1="146.287" y1="411.679" x2="110" y2="300" stroke-width="1" stroke="red"/> 
<line x1="110" y1="300" x2="146.287" y2="188.321" stroke-width="1" stroke="red"/> 
<line x1="146.287" y1="188.321" x2="241.287" y2="119.299" stroke-width="1" stroke="red"/> 
<line x1="241.287" y1="119.299" x2="358.713" y2="119.299" stroke-width="1" stroke="red"/> 
<line x1="358.713" y1="119.299" x2="453.713" y2="188.321" stroke-width="1" stroke="red"/> 
<line x1="453.713" y1="188.321" x2="490" y2="300" stroke-width="1" stroke="red"/> 
<ellipse cx="300" cy="300" rx="190" ry="190" fill="none" stroke-width="1" stroke="black"/>
</svg>
