<svg version = "1.1" xmlns = "http://www.w3.org/2000/svg">
  <path stroke="#000000" stroke-width="1" fill="none" d="M 0.000 0.000 L 100.000 0.000 L 100.000 100.000 L 0.000 100.000 L 0.000 0.000 " />
  <path stroke="#000000" stroke-width="1" fill="#94631E" fill-opacity="1.000" d="M 100.000 210.000 L 400.000 210.000 L 400.000 410.000 L 100.000 410.000 L 100.000 210.000 " />
  <path stroke="#000000" stroke-width="1" fill="none" d="M 100.000 200.000 L 500.000 200.000 L 500.000 400.000 L 100.000 400.000 L 100.000 200.000 " />
  <ellipse fill="#FFD724" fill-opacity="1.000" stroke="#FF7924" stroke-width="1" cx="600.000" cy="150.000" rx="70.000" ry="70.000"  />
  <path stroke="#FF7924" stroke-width="1" fill="none" d="M 530.000 80.000 L 670.000 80.000 L 670.000 220.000 L 530.000 220.000 L 530.000 80.000 " />
  <ellipse fill="none" stroke="#FF7924" stroke-width="1" cx="620.000" cy="140.000" rx="100.000" ry="70.000"  />
  <path stroke="#000000" stroke-width="1" fill="#96260D" fill-opacity="1.000" d="M 400.000 200.000 L 100.000 200.000 L 250.000 100.000 L 400.000 200.000 " />
  <path stroke="#79FF61" stroke-width="1" fill="none" d="M 100.000 100.000 L 400.000 100.000 L 400.000 200.000 L 100.000 200.000 L 100.000 100.000 " />
  <path stroke="#2FBA25" stroke-width="1" fill="none" d="M 50.000 100.000 L 450.000 100.000 L 450.000 200.000 L 50.000 200.000 L 50.000 100.000 " />
  <path stroke="#000000" stroke-width="1" fill="#96260D" fill-opacity="1.000" d="M 450.000 200.000 L 50.000 200.000 L 250.000 100.000 L 450.000 200.000 " />
</svg>
