<svg version = "1.1" xmlns = "http://www.w3.org/2000/svg">
  <path stroke="#000000" stroke-width="1" fill="#94631E" fill-opacity="1.000" d="M 100.000 310.000 L 400.000 310.000 L 400.000 510.000 L 100.000 510.000 L 100.000 310.000 " />
  <path stroke="#000000" stroke-width="1" fill="#96260D" fill-opacity="1.000" d="M 450.000 300.000 L 50.000 300.000 L 250.000 200.000 L 450.000 300.000 " />
  <path stroke="#FF2B0F" stroke-width="1" fill="none" d="M 50.000 200.000 L 450.000 200.000 L 450.000 510.000 L 50.000 510.000 L 50.000 200.000 " />
  <path stroke="#FF2B0F" stroke-width="1" fill="none" d="M 550.000 190.000 L 1150.000 190.000 L 1150.000 283.000 L 550.000 283.000 L 550.000 190.000 " />
  <path stroke="#000000" stroke-width="1" fill="#94631E" fill-opacity="1.000" d="M 625.000 223.000 L 1075.000 223.000 L 1075.000 283.000 L 625.000 283.000 L 625.000 223.000 " />
  <path stroke="#000000" stroke-width="1" fill="#96260D" fill-opacity="1.000" d="M 1150.000 220.000 L 550.000 220.000 L 850.000 190.000 L 1150.000 220.000 " />
  <ellipse fill="#FFD724" fill-opacity="1.000" stroke="#FF7924" stroke-width="1" cx="100.000" cy="100.000" rx="70.000" ry="70.000"  />
</svg>
